<?xml version="1.0" encoding="UTF-8" ?>
<svg version="1.1" width="64" height="64" xmlns="http://www.w3.org/2000/svg" shape-rendering="crispEdges">
<rect x="0" y="0" width="64" height="5" fill="#272790" />
<rect x="0" y="5" width="26" height="1" fill="#272790" />
<rect x="26" y="5" width="2" height="1" fill="#1B1F21" />
<rect x="28" y="5" width="36" height="1" fill="#272790" />
<rect x="0" y="6" width="25" height="1" fill="#272790" />
<rect x="25" y="6" width="1" height="1" fill="#1B1F21" />
<rect x="26" y="6" width="1" height="7" fill="#E64539" />
<rect x="27" y="6" width="1" height="1" fill="#FF5277" />
<rect x="28" y="6" width="1" height="1" fill="#1B1F21" />
<rect x="29" y="6" width="35" height="1" fill="#272790" />
<rect x="0" y="7" width="24" height="2" fill="#272790" />
<rect x="24" y="7" width="1" height="2" fill="#1B1F21" />
<rect x="25" y="7" width="1" height="1" fill="#AD2F45" />
<rect x="27" y="7" width="1" height="1" fill="#E64539" />
<rect x="28" y="7" width="1" height="2" fill="#FF5277" />
<rect x="29" y="7" width="1" height="2" fill="#1B1F21" />
<rect x="30" y="7" width="34" height="2" fill="#272790" />
<rect x="25" y="8" width="1" height="3" fill="#E64539" />
<rect x="27" y="8" width="1" height="1" fill="#1B1F21" />
<rect x="0" y="9" width="23" height="2" fill="#272790" />
<rect x="23" y="9" width="1" height="2" fill="#1B1F21" />
<rect x="24" y="9" width="1" height="1" fill="#AD2F45" />
<rect x="27" y="9" width="2" height="1" fill="#E64539" />
<rect x="29" y="9" width="1" height="2" fill="#FF5277" />
<rect x="30" y="9" width="1" height="2" fill="#1B1F21" />
<rect x="31" y="9" width="33" height="2" fill="#272790" />
<rect x="24" y="10" width="1" height="3" fill="#E64539" />
<rect x="27" y="10" width="1" height="3" fill="#E64539" />
<rect x="28" y="10" width="1" height="1" fill="#1B1F21" />
<rect x="0" y="11" width="22" height="5" fill="#272790" />
<rect x="22" y="11" width="1" height="2" fill="#1B1F21" />
<rect x="23" y="11" width="1" height="1" fill="#AD2F45" />
<rect x="25" y="11" width="1" height="1" fill="#1B1F21" />
<rect x="28" y="11" width="2" height="2" fill="#E64539" />
<rect x="30" y="11" width="1" height="2" fill="#FF5277" />
<rect x="31" y="11" width="1" height="2" fill="#1B1F21" />
<rect x="32" y="11" width="32" height="1" fill="#272790" />
<rect x="23" y="12" width="1" height="1" fill="#2F5753" />
<rect x="25" y="12" width="1" height="1" fill="#E64539" />
<rect x="32" y="12" width="10" height="6" fill="#272790" />
<rect x="42" y="12" width="1" height="1" fill="#4FA4B8" />
<rect x="43" y="12" width="21" height="4" fill="#272790" />
<rect x="22" y="13" width="1" height="5" fill="#272790" />
<rect x="23" y="13" width="1" height="1" fill="#1B1F21" />
<rect x="24" y="13" width="2" height="1" fill="#2F5753" />
<rect x="26" y="13" width="1" height="1" fill="#3B7D4F" />
<rect x="27" y="13" width="1" height="1" fill="#2F5753" />
<rect x="28" y="13" width="2" height="1" fill="#3B7D4F" />
<rect x="30" y="13" width="1" height="1" fill="#1B1F21" />
<rect x="31" y="13" width="1" height="7" fill="#272790" />
<rect x="42" y="13" width="1" height="5" fill="#272790" />
<rect x="23" y="14" width="1" height="5" fill="#272790" />
<rect x="24" y="14" width="6" height="1" fill="#1B1F21" />
<rect x="30" y="14" width="1" height="7" fill="#272790" />
<rect x="24" y="15" width="6" height="6" fill="#272790" />
<rect x="0" y="16" width="12" height="4" fill="#272790" />
<rect x="12" y="16" width="1" height="1" fill="#4FA4B8" />
<rect x="13" y="16" width="9" height="3" fill="#272790" />
<rect x="43" y="16" width="9" height="1" fill="#272790" />
<rect x="52" y="16" width="2" height="1" fill="#4FA4B8" />
<rect x="54" y="16" width="10" height="1" fill="#272790" />
<rect x="12" y="17" width="1" height="3" fill="#272790" />
<rect x="43" y="17" width="8" height="1" fill="#272790" />
<rect x="51" y="17" width="1" height="2" fill="#4FA4B8" />
<rect x="52" y="17" width="2" height="2" fill="#272790" />
<rect x="54" y="17" width="1" height="2" fill="#4FA4B8" />
<rect x="55" y="17" width="9" height="4" fill="#272790" />
<rect x="22" y="18" width="1" height="1" fill="#4FA4B8" />
<rect x="32" y="18" width="3" height="1" fill="#272790" />
<rect x="35" y="18" width="10" height="1" fill="#1B1F21" />
<rect x="45" y="18" width="6" height="1" fill="#272790" />
<rect x="13" y="19" width="8" height="2" fill="#272790" />
<rect x="21" y="19" width="1" height="1" fill="#4FA4B8" />
<rect x="22" y="19" width="1" height="1" fill="#272790" />
<rect x="23" y="19" width="1" height="1" fill="#4FA4B8" />
<rect x="32" y="19" width="1" height="1" fill="#272790" />
<rect x="33" y="19" width="2" height="1" fill="#1B1F21" />
<rect x="35" y="19" width="1" height="4" fill="#DFE0E8" />
<rect x="36" y="19" width="1" height="2" fill="#A3A7C2" />
<rect x="37" y="19" width="2" height="2" fill="#DFE0E8" />
<rect x="39" y="19" width="1" height="2" fill="#A3A7C2" />
<rect x="40" y="19" width="2" height="2" fill="#DFE0E8" />
<rect x="42" y="19" width="1" height="2" fill="#A3A7C2" />
<rect x="43" y="19" width="1" height="2" fill="#DFE0E8" />
<rect x="44" y="19" width="1" height="1" fill="#F5FFE8" />
<rect x="45" y="19" width="1" height="1" fill="#1B1F21" />
<rect x="46" y="19" width="6" height="1" fill="#272790" />
<rect x="52" y="19" width="2" height="1" fill="#4FA4B8" />
<rect x="54" y="19" width="1" height="7" fill="#272790" />
<rect x="0" y="20" width="11" height="1" fill="#272790" />
<rect x="11" y="20" width="2" height="1" fill="#4FA4B8" />
<rect x="21" y="20" width="1" height="7" fill="#272790" />
<rect x="22" y="20" width="1" height="1" fill="#4FA4B8" />
<rect x="23" y="20" width="1" height="5" fill="#272790" />
<rect x="31" y="20" width="2" height="1" fill="#1B1F21" />
<rect x="33" y="20" width="1" height="1" fill="#A3A7C2" />
<rect x="34" y="20" width="1" height="1" fill="#DFE0E8" />
<rect x="44" y="20" width="1" height="3" fill="#DFE0E8" />
<rect x="45" y="20" width="1" height="2" fill="#F5FFE8" />
<rect x="46" y="20" width="1" height="2" fill="#1B1F21" />
<rect x="47" y="20" width="7" height="2" fill="#272790" />
<rect x="0" y="21" width="10" height="7" fill="#272790" />
<rect x="10" y="21" width="1" height="2" fill="#4FA4B8" />
<rect x="11" y="21" width="2" height="2" fill="#272790" />
<rect x="13" y="21" width="1" height="2" fill="#4FA4B8" />
<rect x="14" y="21" width="7" height="7" fill="#272790" />
<rect x="22" y="21" width="1" height="5" fill="#272790" />
<rect x="24" y="21" width="5" height="1" fill="#272790" />
<rect x="29" y="21" width="2" height="1" fill="#1B1F21" />
<rect x="31" y="21" width="3" height="1" fill="#DFE0E8" />
<rect x="34" y="21" width="1" height="2" fill="#A3A7C2" />
<rect x="36" y="21" width="1" height="3" fill="#DFE0E8" />
<rect x="37" y="21" width="1" height="2" fill="#A3A7C2" />
<rect x="38" y="21" width="2" height="2" fill="#DFE0E8" />
<rect x="40" y="21" width="1" height="2" fill="#A3A7C2" />
<rect x="41" y="21" width="2" height="2" fill="#DFE0E8" />
<rect x="43" y="21" width="1" height="2" fill="#A3A7C2" />
<rect x="55" y="21" width="1" height="1" fill="#272790" />
<rect x="56" y="21" width="3" height="1" fill="#4FA4B8" />
<rect x="59" y="21" width="5" height="1" fill="#272790" />
<rect x="24" y="22" width="3" height="1" fill="#272790" />
<rect x="27" y="22" width="2" height="1" fill="#1B1F21" />
<rect x="29" y="22" width="1" height="2" fill="#A3A7C2" />
<rect x="30" y="22" width="1" height="2" fill="#DFE0E8" />
<rect x="31" y="22" width="1" height="2" fill="#A3A7C2" />
<rect x="32" y="22" width="2" height="2" fill="#DFE0E8" />
<rect x="45" y="22" width="1" height="5" fill="#DFE0E8" />
<rect x="46" y="22" width="1" height="4" fill="#F5FFE8" />
<rect x="47" y="22" width="1" height="4" fill="#1B1F21" />
<rect x="48" y="22" width="6" height="2" fill="#272790" />
<rect x="55" y="22" width="1" height="3" fill="#4FA4B8" />
<rect x="56" y="22" width="3" height="3" fill="#272790" />
<rect x="59" y="22" width="1" height="3" fill="#4FA4B8" />
<rect x="60" y="22" width="4" height="42" fill="#272790" />
<rect x="10" y="23" width="1" height="6" fill="#272790" />
<rect x="11" y="23" width="2" height="1" fill="#4FA4B8" />
<rect x="13" y="23" width="1" height="7" fill="#272790" />
<rect x="24" y="23" width="1" height="1" fill="#272790" />
<rect x="25" y="23" width="2" height="1" fill="#1B1F21" />
<rect x="27" y="23" width="1" height="1" fill="#A3A7C2" />
<rect x="28" y="23" width="1" height="1" fill="#686F99" />
<rect x="34" y="23" width="1" height="1" fill="#DFE0E8" />
<rect x="35" y="23" width="1" height="1" fill="#A3A7C2" />
<rect x="37" y="23" width="1" height="1" fill="#DFE0E8" />
<rect x="38" y="23" width="1" height="1" fill="#A3A7C2" />
<rect x="39" y="23" width="2" height="1" fill="#DFE0E8" />
<rect x="41" y="23" width="1" height="2" fill="#A3A7C2" />
<rect x="42" y="23" width="2" height="2" fill="#DFE0E8" />
<rect x="44" y="23" width="1" height="4" fill="#A3A7C2" />
<rect x="11" y="24" width="2" height="5" fill="#272790" />
<rect x="24" y="24" width="1" height="1" fill="#1B1F21" />
<rect x="25" y="24" width="1" height="2" fill="#404973" />
<rect x="26" y="24" width="2" height="1" fill="#686F99" />
<rect x="28" y="24" width="1" height="1" fill="#A3A7C2" />
<rect x="29" y="24" width="1" height="1" fill="#686F99" />
<rect x="30" y="24" width="1" height="1" fill="#A3A7C2" />
<rect x="31" y="24" width="8" height="1" fill="#1B1F21" />
<rect x="39" y="24" width="1" height="1" fill="#A3A7C2" />
<rect x="40" y="24" width="1" height="1" fill="#DFE0E8" />
<rect x="48" y="24" width="4" height="1" fill="#1B1F21" />
<rect x="52" y="24" width="2" height="1" fill="#272790" />
<rect x="23" y="25" width="1" height="1" fill="#1B1F21" />
<rect x="24" y="25" width="1" height="2" fill="#404973" />
<rect x="26" y="25" width="1" height="1" fill="#686F99" />
<rect x="27" y="25" width="1" height="1" fill="#A3A7C2" />
<rect x="28" y="25" width="3" height="1" fill="#1B1F21" />
<rect x="31" y="25" width="6" height="1" fill="#F5FFE8" />
<rect x="37" y="25" width="1" height="2" fill="#DFE0E8" />
<rect x="38" y="25" width="1" height="1" fill="#F5FFE8" />
<rect x="39" y="25" width="2" height="1" fill="#1B1F21" />
<rect x="41" y="25" width="1" height="1" fill="#DFE0E8" />
<rect x="42" y="25" width="1" height="1" fill="#A3A7C2" />
<rect x="43" y="25" width="1" height="2" fill="#DFE0E8" />
<rect x="48" y="25" width="4" height="1" fill="#DFE0E8" />
<rect x="52" y="25" width="2" height="1" fill="#1B1F21" />
<rect x="55" y="25" width="1" height="2" fill="#272790" />
<rect x="56" y="25" width="3" height="1" fill="#4FA4B8" />
<rect x="59" y="25" width="1" height="18" fill="#272790" />
<rect x="22" y="26" width="1" height="1" fill="#1B1F21" />
<rect x="23" y="26" width="1" height="2" fill="#404973" />
<rect x="25" y="26" width="1" height="1" fill="#686F99" />
<rect x="26" y="26" width="2" height="1" fill="#1B1F21" />
<rect x="28" y="26" width="5" height="1" fill="#F5FFE8" />
<rect x="33" y="26" width="4" height="1" fill="#DFE0E8" />
<rect x="38" y="26" width="3" height="9" fill="#E64539" />
<rect x="41" y="26" width="2" height="1" fill="#1B1F21" />
<rect x="46" y="26" width="1" height="1" fill="#1B1F21" />
<rect x="47" y="26" width="2" height="9" fill="#E64539" />
<rect x="49" y="26" width="3" height="1" fill="#DFE0E8" />
<rect x="52" y="26" width="1" height="1" fill="#A3A7C2" />
<rect x="53" y="26" width="1" height="1" fill="#686F99" />
<rect x="54" y="26" width="1" height="1" fill="#1B1F21" />
<rect x="56" y="26" width="3" height="2" fill="#272790" />
<rect x="21" y="27" width="1" height="1" fill="#1B1F21" />
<rect x="22" y="27" width="1" height="1" fill="#404973" />
<rect x="24" y="27" width="2" height="1" fill="#1B1F21" />
<rect x="26" y="27" width="1" height="1" fill="#F5FFE8" />
<rect x="27" y="27" width="9" height="1" fill="#DFE0E8" />
<rect x="36" y="27" width="2" height="5" fill="#E64539" />
<rect x="41" y="27" width="2" height="8" fill="#E64539" />
<rect x="43" y="27" width="3" height="1" fill="#1B1F21" />
<rect x="46" y="27" width="1" height="8" fill="#E64539" />
<rect x="49" y="27" width="1" height="9" fill="#E64539" />
<rect x="50" y="27" width="3" height="2" fill="#DFE0E8" />
<rect x="53" y="27" width="1" height="2" fill="#A3A7C2" />
<rect x="54" y="27" width="1" height="1" fill="#AD2F45" />
<rect x="55" y="27" width="1" height="1" fill="#1B1F21" />
<rect x="0" y="28" width="6" height="1" fill="#272790" />
<rect x="6" y="28" width="4" height="1" fill="#1B1F21" />
<rect x="14" y="28" width="5" height="1" fill="#272790" />
<rect x="19" y="28" width="2" height="1" fill="#1B1F21" />
<rect x="21" y="28" width="1" height="1" fill="#404973" />
<rect x="22" y="28" width="2" height="1" fill="#1B1F21" />
<rect x="24" y="28" width="4" height="2" fill="#E64539" />
<rect x="28" y="28" width="6" height="1" fill="#DFE0E8" />
<rect x="34" y="28" width="2" height="4" fill="#E64539" />
<rect x="43" y="28" width="3" height="5" fill="#E64539" />
<rect x="54" y="28" width="1" height="5" fill="#E64539" />
<rect x="55" y="28" width="1" height="2" fill="#AD2F45" />
<rect x="56" y="28" width="1" height="2" fill="#1B1F21" />
<rect x="57" y="28" width="2" height="2" fill="#272790" />
<rect x="0" y="29" width="5" height="35" fill="#272790" />
<rect x="5" y="29" width="1" height="4" fill="#1B1F21" />
<rect x="6" y="29" width="1" height="1" fill="#E64539" />
<rect x="7" y="29" width="2" height="4" fill="#AD2F45" />
<rect x="9" y="29" width="1" height="1" fill="#E64539" />
<rect x="10" y="29" width="2" height="1" fill="#1B1F21" />
<rect x="12" y="29" width="1" height="1" fill="#272790" />
<rect x="14" y="29" width="3" height="1" fill="#272790" />
<rect x="17" y="29" width="2" height="1" fill="#1B1F21" />
<rect x="19" y="29" width="1" height="1" fill="#404973" />
<rect x="20" y="29" width="2" height="1" fill="#1B1F21" />
<rect x="22" y="29" width="2" height="2" fill="#E64539" />
<rect x="28" y="29" width="6" height="3" fill="#E64539" />
<rect x="50" y="29" width="1" height="4" fill="#E64539" />
<rect x="51" y="29" width="3" height="1" fill="#DFE0E8" />
<rect x="6" y="30" width="1" height="1" fill="#AD2F45" />
<rect x="9" y="30" width="2" height="10" fill="#AD2F45" />
<rect x="11" y="30" width="1" height="1" fill="#E64539" />
<rect x="12" y="30" width="2" height="1" fill="#1B1F21" />
<rect x="14" y="30" width="1" height="1" fill="#272790" />
<rect x="15" y="30" width="2" height="2" fill="#1B1F21" />
<rect x="17" y="30" width="1" height="1" fill="#404973" />
<rect x="18" y="30" width="2" height="1" fill="#1B1F21" />
<rect x="20" y="30" width="2" height="2" fill="#E64539" />
<rect x="24" y="30" width="1" height="1" fill="#DFE0E8" />
<rect x="25" y="30" width="3" height="1" fill="#E64539" />
<rect x="51" y="30" width="3" height="2" fill="#E64539" />
<rect x="55" y="30" width="1" height="6" fill="#E64539" />
<rect x="56" y="30" width="1" height="7" fill="#AD2F45" />
<rect x="57" y="30" width="1" height="8" fill="#1B1F21" />
<rect x="58" y="30" width="1" height="12" fill="#272790" />
<rect x="6" y="31" width="1" height="2" fill="#781D4F" />
<rect x="11" y="31" width="1" height="1" fill="#AD2F45" />
<rect x="12" y="31" width="1" height="7" fill="#A3A7C2" />
<rect x="13" y="31" width="1" height="1" fill="#DFE0E8" />
<rect x="14" y="31" width="1" height="1" fill="#1B1F21" />
<rect x="17" y="31" width="1" height="1" fill="#1B1F21" />
<rect x="18" y="31" width="2" height="1" fill="#E64539" />
<rect x="22" y="31" width="1" height="1" fill="#E64539" />
<rect x="23" y="31" width="1" height="1" fill="#AD2F45" />
<rect x="24" y="31" width="1" height="2" fill="#E64539" />
<rect x="25" y="31" width="1" height="4" fill="#DFE0E8" />
<rect x="26" y="31" width="2" height="3" fill="#E64539" />
<rect x="11" y="32" width="1" height="5" fill="#A3A7C2" />
<rect x="13" y="32" width="1" height="5" fill="#A3A7C2" />
<rect x="14" y="32" width="2" height="1" fill="#DFE0E8" />
<rect x="16" y="32" width="1" height="1" fill="#A3A7C2" />
<rect x="17" y="32" width="1" height="1" fill="#DFE0E8" />
<rect x="18" y="32" width="1" height="1" fill="#AD2F45" />
<rect x="19" y="32" width="1" height="1" fill="#E64539" />
<rect x="20" y="32" width="1" height="1" fill="#AD2F45" />
<rect x="21" y="32" width="1" height="1" fill="#E64539" />
<rect x="22" y="32" width="1" height="1" fill="#AD2F45" />
<rect x="23" y="32" width="1" height="1" fill="#E64539" />
<rect x="28" y="32" width="1" height="1" fill="#AD2F45" />
<rect x="29" y="32" width="5" height="1" fill="#E64539" />
<rect x="34" y="32" width="3" height="1" fill="#1B1F21" />
<rect x="37" y="32" width="1" height="1" fill="#E64539" />
<rect x="51" y="32" width="3" height="1" fill="#1B1F21" />
<rect x="5" y="33" width="1" height="7" fill="#272790" />
<rect x="6" y="33" width="1" height="2" fill="#1B1F21" />
<rect x="7" y="33" width="1" height="2" fill="#781D4F" />
<rect x="8" y="33" width="1" height="2" fill="#AD2F45" />
<rect x="14" y="33" width="2" height="1" fill="#A3A7C2" />
<rect x="16" y="33" width="1" height="1" fill="#DFE0E8" />
<rect x="17" y="33" width="1" height="3" fill="#A3A7C2" />
<rect x="18" y="33" width="1" height="1" fill="#E64539" />
<rect x="19" y="33" width="1" height="6" fill="#AD2F45" />
<rect x="20" y="33" width="1" height="1" fill="#E64539" />
<rect x="21" y="33" width="1" height="5" fill="#AD2F45" />
<rect x="22" y="33" width="1" height="1" fill="#E64539" />
<rect x="23" y="33" width="1" height="1" fill="#AD2F45" />
<rect x="24" y="33" width="1" height="1" fill="#DFE0E8" />
<rect x="28" y="33" width="5" height="1" fill="#E64539" />
<rect x="33" y="33" width="1" height="3" fill="#1B1F21" />
<rect x="34" y="33" width="2" height="1" fill="#F5FFE8" />
<rect x="36" y="33" width="2" height="3" fill="#1B1F21" />
<rect x="43" y="33" width="1" height="1" fill="#AD2F45" />
<rect x="44" y="33" width="1" height="2" fill="#E64539" />
<rect x="45" y="33" width="1" height="1" fill="#AD2F45" />
<rect x="50" y="33" width="1" height="3" fill="#1B1F21" />
<rect x="51" y="33" width="2" height="1" fill="#F5FFE8" />
<rect x="53" y="33" width="2" height="3" fill="#1B1F21" />
<rect x="14" y="34" width="1" height="1" fill="#686F99" />
<rect x="15" y="34" width="1" height="1" fill="#A3A7C2" />
<rect x="16" y="34" width="1" height="1" fill="#686F99" />
<rect x="18" y="34" width="1" height="6" fill="#AD2F45" />
<rect x="20" y="34" width="1" height="5" fill="#AD2F45" />
<rect x="22" y="34" width="1" height="1" fill="#AD2F45" />
<rect x="23" y="34" width="1" height="1" fill="#DFE0E8" />
<rect x="24" y="34" width="1" height="1" fill="#A3A7C2" />
<rect x="26" y="34" width="1" height="1" fill="#AD2F45" />
<rect x="27" y="34" width="1" height="1" fill="#E64539" />
<rect x="28" y="34" width="1" height="1" fill="#AD2F45" />
<rect x="29" y="34" width="4" height="1" fill="#E64539" />
<rect x="34" y="34" width="1" height="1" fill="#F5FFE8" />
<rect x="35" y="34" width="1" height="3" fill="#1B1F21" />
<rect x="43" y="34" width="1" height="1" fill="#E64539" />
<rect x="45" y="34" width="1" height="1" fill="#E64539" />
<rect x="51" y="34" width="1" height="1" fill="#F5FFE8" />
<rect x="52" y="34" width="1" height="3" fill="#1B1F21" />
<rect x="6" y="35" width="1" height="3" fill="#272790" />
<rect x="7" y="35" width="1" height="3" fill="#1B1F21" />
<rect x="8" y="35" width="1" height="3" fill="#781D4F" />
<rect x="14" y="35" width="1" height="1" fill="#A3A7C2" />
<rect x="15" y="35" width="1" height="1" fill="#686F99" />
<rect x="16" y="35" width="1" height="1" fill="#A3A7C2" />
<rect x="22" y="35" width="1" height="1" fill="#DFE0E8" />
<rect x="23" y="35" width="1" height="1" fill="#A3A7C2" />
<rect x="24" y="35" width="1" height="1" fill="#DFE0E8" />
<rect x="25" y="35" width="1" height="4" fill="#A3A7C2" />
<rect x="26" y="35" width="1" height="1" fill="#E64539" />
<rect x="27" y="35" width="1" height="1" fill="#AD2F45" />
<rect x="28" y="35" width="1" height="1" fill="#E64539" />
<rect x="29" y="35" width="1" height="1" fill="#1B1F21" />
<rect x="30" y="35" width="3" height="2" fill="#E64539" />
<rect x="34" y="35" width="1" height="2" fill="#1B1F21" />
<rect x="38" y="35" width="1" height="1" fill="#E64539" />
<rect x="39" y="35" width="2" height="1" fill="#F5FFE8" />
<rect x="41" y="35" width="6" height="2" fill="#DFE0E8" />
<rect x="47" y="35" width="2" height="1" fill="#F5FFE8" />
<rect x="51" y="35" width="1" height="2" fill="#1B1F21" />
<rect x="14" y="36" width="1" height="1" fill="#686F99" />
<rect x="15" y="36" width="1" height="1" fill="#A3A7C2" />
<rect x="16" y="36" width="1" height="1" fill="#686F99" />
<rect x="17" y="36" width="1" height="3" fill="#AD2F45" />
<rect x="22" y="36" width="1" height="4" fill="#A3A7C2" />
<rect x="23" y="36" width="1" height="1" fill="#DFE0E8" />
<rect x="24" y="36" width="1" height="4" fill="#A3A7C2" />
<rect x="26" y="36" width="1" height="4" fill="#A3A7C2" />
<rect x="27" y="36" width="1" height="1" fill="#E64539" />
<rect x="28" y="36" width="1" height="2" fill="#1B1F21" />
<rect x="29" y="36" width="1" height="1" fill="#E64539" />
<rect x="33" y="36" width="1" height="1" fill="#E64539" />
<rect x="36" y="36" width="1" height="1" fill="#1B1F21" />
<rect x="37" y="36" width="3" height="1" fill="#F5FFE8" />
<rect x="40" y="36" width="1" height="1" fill="#DFE0E8" />
<rect x="47" y="36" width="1" height="1" fill="#DFE0E8" />
<rect x="48" y="36" width="3" height="1" fill="#F5FFE8" />
<rect x="53" y="36" width="1" height="1" fill="#1B1F21" />
<rect x="54" y="36" width="1" height="1" fill="#E64539" />
<rect x="55" y="36" width="1" height="1" fill="#AD2F45" />
<rect x="11" y="37" width="1" height="3" fill="#AD2F45" />
<rect x="13" y="37" width="1" height="1" fill="#686F99" />
<rect x="14" y="37" width="1" height="1" fill="#A3A7C2" />
<rect x="15" y="37" width="1" height="1" fill="#686F99" />
<rect x="16" y="37" width="1" height="1" fill="#AD2F45" />
<rect x="23" y="37" width="1" height="2" fill="#A3A7C2" />
<rect x="27" y="37" width="1" height="4" fill="#A3A7C2" />
<rect x="29" y="37" width="1" height="1" fill="#AD2F45" />
<rect x="30" y="37" width="2" height="1" fill="#E64539" />
<rect x="32" y="37" width="1" height="1" fill="#1B1F21" />
<rect x="33" y="37" width="1" height="3" fill="#A3A7C2" />
<rect x="34" y="37" width="1" height="1" fill="#DFE0E8" />
<rect x="35" y="37" width="1" height="1" fill="#A3A7C2" />
<rect x="36" y="37" width="3" height="1" fill="#F5FFE8" />
<rect x="39" y="37" width="1" height="5" fill="#DFE0E8" />
<rect x="40" y="37" width="8" height="1" fill="#1B1F21" />
<rect x="48" y="37" width="1" height="5" fill="#DFE0E8" />
<rect x="49" y="37" width="3" height="1" fill="#F5FFE8" />
<rect x="52" y="37" width="1" height="1" fill="#A3A7C2" />
<rect x="53" y="37" width="2" height="1" fill="#DFE0E8" />
<rect x="55" y="37" width="2" height="1" fill="#A3A7C2" />
<rect x="6" y="38" width="1" height="2" fill="#1B1F21" />
<rect x="7" y="38" width="1" height="2" fill="#781D4F" />
<rect x="8" y="38" width="1" height="2" fill="#AD2F45" />
<rect x="12" y="38" width="2" height="1" fill="#AD2F45" />
<rect x="14" y="38" width="1" height="1" fill="#781D4F" />
<rect x="15" y="38" width="1" height="1" fill="#AD2F45" />
<rect x="16" y="38" width="1" height="1" fill="#781D4F" />
<rect x="21" y="38" width="1" height="3" fill="#A3A7C2" />
<rect x="28" y="38" width="1" height="1" fill="#686F99" />
<rect x="29" y="38" width="3" height="1" fill="#1B1F21" />
<rect x="32" y="38" width="1" height="1" fill="#686F99" />
<rect x="34" y="38" width="1" height="1" fill="#A3A7C2" />
<rect x="35" y="38" width="1" height="1" fill="#DFE0E8" />
<rect x="36" y="38" width="1" height="1" fill="#F5FFE8" />
<rect x="37" y="38" width="1" height="1" fill="#A3A7C2" />
<rect x="38" y="38" width="1" height="4" fill="#DFE0E8" />
<rect x="40" y="38" width="8" height="4" fill="#DFE0E8" />
<rect x="49" y="38" width="1" height="4" fill="#DFE0E8" />
<rect x="50" y="38" width="1" height="1" fill="#A3A7C2" />
<rect x="51" y="38" width="1" height="1" fill="#F5FFE8" />
<rect x="52" y="38" width="1" height="1" fill="#DFE0E8" />
<rect x="53" y="38" width="1" height="1" fill="#A3A7C2" />
<rect x="54" y="38" width="1" height="1" fill="#DFE0E8" />
<rect x="55" y="38" width="1" height="2" fill="#A3A7C2" />
<rect x="56" y="38" width="1" height="2" fill="#1B1F21" />
<rect x="57" y="38" width="1" height="5" fill="#272790" />
<rect x="12" y="39" width="1" height="1" fill="#AD2F45" />
<rect x="13" y="39" width="1" height="2" fill="#781D4F" />
<rect x="14" y="39" width="1" height="1" fill="#AD2F45" />
<rect x="15" y="39" width="1" height="1" fill="#781D4F" />
<rect x="16" y="39" width="1" height="1" fill="#AD2F45" />
<rect x="17" y="39" width="1" height="1" fill="#781D4F" />
<rect x="19" y="39" width="2" height="1" fill="#A3A7C2" />
<rect x="23" y="39" width="1" height="1" fill="#686F99" />
<rect x="25" y="39" width="1" height="1" fill="#686F99" />
<rect x="28" y="39" width="5" height="1" fill="#A3A7C2" />
<rect x="34" y="39" width="1" height="1" fill="#686F99" />
<rect x="35" y="39" width="1" height="1" fill="#F5FFE8" />
<rect x="36" y="39" width="1" height="1" fill="#A3A7C2" />
<rect x="37" y="39" width="1" height="2" fill="#DFE0E8" />
<rect x="50" y="39" width="1" height="2" fill="#DFE0E8" />
<rect x="51" y="39" width="1" height="1" fill="#A3A7C2" />
<rect x="52" y="39" width="1" height="1" fill="#F5FFE8" />
<rect x="53" y="39" width="1" height="1" fill="#686F99" />
<rect x="54" y="39" width="1" height="1" fill="#A3A7C2" />
<rect x="5" y="40" width="1" height="3" fill="#1B1F21" />
<rect x="6" y="40" width="1" height="2" fill="#781D4F" />
<rect x="7" y="40" width="1" height="1" fill="#AD2F45" />
<rect x="8" y="40" width="5" height="1" fill="#781D4F" />
<rect x="14" y="40" width="1" height="1" fill="#4F1D4C" />
<rect x="15" y="40" width="3" height="1" fill="#686F99" />
<rect x="18" y="40" width="2" height="1" fill="#A3A7C2" />
<rect x="20" y="40" width="1" height="1" fill="#686F99" />
<rect x="22" y="40" width="1" height="1" fill="#686F99" />
<rect x="23" y="40" width="1" height="1" fill="#A3A7C2" />
<rect x="24" y="40" width="1" height="1" fill="#686F99" />
<rect x="25" y="40" width="1" height="1" fill="#A3A7C2" />
<rect x="26" y="40" width="1" height="2" fill="#686F99" />
<rect x="28" y="40" width="1" height="1" fill="#686F99" />
<rect x="29" y="40" width="1" height="1" fill="#A3A7C2" />
<rect x="30" y="40" width="1" height="1" fill="#686F99" />
<rect x="31" y="40" width="2" height="1" fill="#A3A7C2" />
<rect x="33" y="40" width="1" height="1" fill="#686F99" />
<rect x="34" y="40" width="1" height="1" fill="#F5FFE8" />
<rect x="35" y="40" width="1" height="1" fill="#DFE0E8" />
<rect x="36" y="40" width="1" height="1" fill="#686F99" />
<rect x="51" y="40" width="1" height="1" fill="#686F99" />
<rect x="52" y="40" width="1" height="1" fill="#DFE0E8" />
<rect x="53" y="40" width="1" height="1" fill="#F5FFE8" />
<rect x="54" y="40" width="1" height="1" fill="#686F99" />
<rect x="55" y="40" width="1" height="1" fill="#1B1F21" />
<rect x="56" y="40" width="1" height="24" fill="#272790" />
<rect x="7" y="41" width="3" height="1" fill="#781D4F" />
<rect x="10" y="41" width="1" height="1" fill="#4F1D4C" />
<rect x="11" y="41" width="2" height="1" fill="#781D4F" />
<rect x="13" y="41" width="1" height="1" fill="#4F1D4C" />
<rect x="14" y="41" width="9" height="1" fill="#1B1F21" />
<rect x="23" y="41" width="1" height="1" fill="#686F99" />
<rect x="24" y="41" width="1" height="1" fill="#A3A7C2" />
<rect x="25" y="41" width="1" height="1" fill="#686F99" />
<rect x="27" y="41" width="1" height="1" fill="#686F99" />
<rect x="28" y="41" width="1" height="1" fill="#A3A7C2" />
<rect x="29" y="41" width="1" height="1" fill="#686F99" />
<rect x="30" y="41" width="1" height="1" fill="#A3A7C2" />
<rect x="31" y="41" width="1" height="1" fill="#686F99" />
<rect x="32" y="41" width="2" height="1" fill="#A3A7C2" />
<rect x="34" y="41" width="2" height="2" fill="#686F99" />
<rect x="36" y="41" width="2" height="1" fill="#A3A7C2" />
<rect x="50" y="41" width="2" height="1" fill="#A3A7C2" />
<rect x="52" y="41" width="2" height="1" fill="#686F99" />
<rect x="54" y="41" width="1" height="1" fill="#1B1F21" />
<rect x="55" y="41" width="1" height="7" fill="#272790" />
<rect x="6" y="42" width="1" height="1" fill="#4F1D4C" />
<rect x="7" y="42" width="1" height="1" fill="#781D4F" />
<rect x="8" y="42" width="1" height="1" fill="#4F1D4C" />
<rect x="9" y="42" width="5" height="1" fill="#1B1F21" />
<rect x="14" y="42" width="9" height="1" fill="#272790" />
<rect x="23" y="42" width="9" height="1" fill="#1B1F21" />
<rect x="32" y="42" width="2" height="1" fill="#686F99" />
<rect x="36" y="42" width="1" height="1" fill="#686F99" />
<rect x="37" y="42" width="13" height="1" fill="#A3A7C2" />
<rect x="50" y="42" width="4" height="1" fill="#1B1F21" />
<rect x="54" y="42" width="1" height="5" fill="#272790" />
<rect x="58" y="42" width="1" height="1" fill="#4FA4B8" />
<rect x="5" y="43" width="1" height="21" fill="#272790" />
<rect x="6" y="43" width="3" height="1" fill="#1B1F21" />
<rect x="9" y="43" width="7" height="1" fill="#272790" />
<rect x="16" y="43" width="2" height="1" fill="#1B1F21" />
<rect x="18" y="43" width="14" height="1" fill="#272790" />
<rect x="32" y="43" width="18" height="1" fill="#1B1F21" />
<rect x="50" y="43" width="4" height="3" fill="#272790" />
<rect x="57" y="43" width="1" height="1" fill="#4FA4B8" />
<rect x="58" y="43" width="1" height="1" fill="#272790" />
<rect x="59" y="43" width="1" height="1" fill="#4FA4B8" />
<rect x="6" y="44" width="9" height="1" fill="#272790" />
<rect x="15" y="44" width="1" height="1" fill="#1B1F21" />
<rect x="16" y="44" width="1" height="1" fill="#2F5753" />
<rect x="17" y="44" width="1" height="1" fill="#3B7D4F" />
<rect x="18" y="44" width="2" height="1" fill="#1B1F21" />
<rect x="20" y="44" width="30" height="1" fill="#272790" />
<rect x="57" y="44" width="1" height="20" fill="#272790" />
<rect x="58" y="44" width="1" height="1" fill="#4FA4B8" />
<rect x="59" y="44" width="1" height="20" fill="#272790" />
<rect x="6" y="45" width="8" height="2" fill="#272790" />
<rect x="14" y="45" width="1" height="9" fill="#1B1F21" />
<rect x="15" y="45" width="1" height="8" fill="#2F5753" />
<rect x="16" y="45" width="1" height="8" fill="#3B7D4F" />
<rect x="17" y="45" width="3" height="1" fill="#E64539" />
<rect x="20" y="45" width="2" height="1" fill="#1B1F21" />
<rect x="22" y="45" width="28" height="1" fill="#272790" />
<rect x="58" y="45" width="1" height="19" fill="#272790" />
<rect x="17" y="46" width="1" height="4" fill="#E64539" />
<rect x="18" y="46" width="1" height="1" fill="#1B1F21" />
<rect x="19" y="46" width="3" height="2" fill="#E64539" />
<rect x="22" y="46" width="2" height="1" fill="#1B1F21" />
<rect x="24" y="46" width="22" height="1" fill="#272790" />
<rect x="46" y="46" width="5" height="1" fill="#1B1F21" />
<rect x="51" y="46" width="3" height="1" fill="#272790" />
<rect x="6" y="47" width="3" height="1" fill="#272790" />
<rect x="9" y="47" width="1" height="1" fill="#4FA4B8" />
<rect x="10" y="47" width="4" height="1" fill="#272790" />
<rect x="18" y="47" width="1" height="5" fill="#E64539" />
<rect x="22" y="47" width="2" height="3" fill="#E64539" />
<rect x="24" y="47" width="2" height="1" fill="#1B1F21" />
<rect x="26" y="47" width="19" height="1" fill="#272790" />
<rect x="45" y="47" width="1" height="3" fill="#1B1F21" />
<rect x="46" y="47" width="1" height="1" fill="#FF5277" />
<rect x="47" y="47" width="4" height="1" fill="#E64539" />
<rect x="51" y="47" width="4" height="1" fill="#1B1F21" />
<rect x="6" y="48" width="2" height="16" fill="#272790" />
<rect x="8" y="48" width="1" height="1" fill="#4FA4B8" />
<rect x="9" y="48" width="1" height="1" fill="#272790" />
<rect x="10" y="48" width="1" height="1" fill="#4FA4B8" />
<rect x="11" y="48" width="3" height="16" fill="#272790" />
<rect x="19" y="48" width="2" height="3" fill="#E64539" />
<rect x="21" y="48" width="1" height="1" fill="#1B1F21" />
<rect x="24" y="48" width="2" height="1" fill="#E64539" />
<rect x="26" y="48" width="1" height="3" fill="#1B1F21" />
<rect x="27" y="48" width="18" height="1" fill="#272790" />
<rect x="46" y="48" width="1" height="2" fill="#AD2F45" />
<rect x="47" y="48" width="1" height="2" fill="#FF5277" />
<rect x="48" y="48" width="1" height="1" fill="#1B1F21" />
<rect x="49" y="48" width="5" height="1" fill="#E64539" />
<rect x="54" y="48" width="1" height="2" fill="#3B7D4F" />
<rect x="55" y="48" width="1" height="3" fill="#1B1F21" />
<rect x="8" y="49" width="1" height="15" fill="#272790" />
<rect x="9" y="49" width="1" height="1" fill="#4FA4B8" />
<rect x="10" y="49" width="1" height="15" fill="#272790" />
<rect x="21" y="49" width="1" height="2" fill="#E64539" />
<rect x="24" y="49" width="2" height="1" fill="#FF5277" />
<rect x="27" y="49" width="5" height="1" fill="#272790" />
<rect x="32" y="49" width="2" height="1" fill="#4FA4B8" />
<rect x="34" y="49" width="6" height="1" fill="#272790" />
<rect x="40" y="49" width="1" height="1" fill="#4FA4B8" />
<rect x="41" y="49" width="4" height="15" fill="#272790" />
<rect x="48" y="49" width="4" height="1" fill="#E64539" />
<rect x="52" y="49" width="1" height="1" fill="#1B1F21" />
<rect x="53" y="49" width="1" height="1" fill="#E64539" />
<rect x="9" y="50" width="1" height="14" fill="#272790" />
<rect x="17" y="50" width="1" height="1" fill="#1B1F21" />
<rect x="22" y="50" width="2" height="1" fill="#FF5277" />
<rect x="24" y="50" width="2" height="1" fill="#AD2F45" />
<rect x="27" y="50" width="4" height="14" fill="#272790" />
<rect x="31" y="50" width="1" height="2" fill="#4FA4B8" />
<rect x="32" y="50" width="2" height="2" fill="#272790" />
<rect x="34" y="50" width="1" height="2" fill="#4FA4B8" />
<rect x="35" y="50" width="6" height="5" fill="#272790" />
<rect x="45" y="50" width="1" height="14" fill="#272790" />
<rect x="46" y="50" width="1" height="2" fill="#1B1F21" />
<rect x="47" y="50" width="1" height="2" fill="#AD2F45" />
<rect x="48" y="50" width="1" height="2" fill="#FF5277" />
<rect x="49" y="50" width="4" height="1" fill="#E64539" />
<rect x="53" y="50" width="1" height="2" fill="#3B7D4F" />
<rect x="54" y="50" width="1" height="1" fill="#2F5753" />
<rect x="17" y="51" width="1" height="2" fill="#E64539" />
<rect x="19" y="51" width="1" height="1" fill="#1B1F21" />
<rect x="20" y="51" width="2" height="1" fill="#FF5277" />
<rect x="22" y="51" width="2" height="1" fill="#AD2F45" />
<rect x="24" y="51" width="2" height="1" fill="#1B1F21" />
<rect x="26" y="51" width="1" height="13" fill="#272790" />
<rect x="49" y="51" width="1" height="1" fill="#1B1F21" />
<rect x="50" y="51" width="3" height="1" fill="#E64539" />
<rect x="54" y="51" width="1" height="2" fill="#1B1F21" />
<rect x="55" y="51" width="1" height="13" fill="#272790" />
<rect x="18" y="52" width="2" height="1" fill="#FF5277" />
<rect x="20" y="52" width="2" height="1" fill="#AD2F45" />
<rect x="22" y="52" width="2" height="1" fill="#1B1F21" />
<rect x="24" y="52" width="2" height="12" fill="#272790" />
<rect x="31" y="52" width="1" height="12" fill="#272790" />
<rect x="32" y="52" width="2" height="1" fill="#4FA4B8" />
<rect x="34" y="52" width="1" height="12" fill="#272790" />
<rect x="46" y="52" width="1" height="12" fill="#272790" />
<rect x="47" y="52" width="1" height="2" fill="#1B1F21" />
<rect x="48" y="52" width="1" height="2" fill="#AD2F45" />
<rect x="49" y="52" width="1" height="2" fill="#FF5277" />
<rect x="50" y="52" width="2" height="1" fill="#E64539" />
<rect x="52" y="52" width="1" height="1" fill="#3B7D4F" />
<rect x="53" y="52" width="1" height="1" fill="#2F5753" />
<rect x="15" y="53" width="1" height="1" fill="#283540" />
<rect x="16" y="53" width="1" height="1" fill="#2F5753" />
<rect x="17" y="53" width="1" height="1" fill="#3B7D4F" />
<rect x="18" y="53" width="2" height="1" fill="#AD2F45" />
<rect x="20" y="53" width="2" height="1" fill="#1B1F21" />
<rect x="22" y="53" width="2" height="11" fill="#272790" />
<rect x="32" y="53" width="2" height="11" fill="#272790" />
<rect x="50" y="53" width="2" height="1" fill="#3B7D4F" />
<rect x="52" y="53" width="1" height="1" fill="#2F5753" />
<rect x="53" y="53" width="1" height="1" fill="#1B1F21" />
<rect x="54" y="53" width="1" height="11" fill="#272790" />
<rect x="14" y="54" width="1" height="10" fill="#272790" />
<rect x="15" y="54" width="1" height="1" fill="#1B1F21" />
<rect x="16" y="54" width="1" height="1" fill="#283540" />
<rect x="17" y="54" width="1" height="1" fill="#2F5753" />
<rect x="18" y="54" width="2" height="1" fill="#1B1F21" />
<rect x="20" y="54" width="2" height="10" fill="#272790" />
<rect x="47" y="54" width="1" height="10" fill="#272790" />
<rect x="48" y="54" width="1" height="2" fill="#1B1F21" />
<rect x="49" y="54" width="1" height="1" fill="#3B7D4F" />
<rect x="50" y="54" width="1" height="1" fill="#2F5753" />
<rect x="51" y="54" width="2" height="1" fill="#1B1F21" />
<rect x="53" y="54" width="1" height="10" fill="#272790" />
<rect x="15" y="55" width="1" height="9" fill="#272790" />
<rect x="16" y="55" width="2" height="1" fill="#1B1F21" />
<rect x="18" y="55" width="2" height="9" fill="#272790" />
<rect x="35" y="55" width="1" height="1" fill="#272790" />
<rect x="36" y="55" width="3" height="1" fill="#4FA4B8" />
<rect x="39" y="55" width="2" height="1" fill="#272790" />
<rect x="49" y="55" width="2" height="1" fill="#1B1F21" />
<rect x="51" y="55" width="2" height="9" fill="#272790" />
<rect x="16" y="56" width="2" height="8" fill="#272790" />
<rect x="35" y="56" width="1" height="3" fill="#4FA4B8" />
<rect x="36" y="56" width="3" height="3" fill="#272790" />
<rect x="39" y="56" width="1" height="3" fill="#4FA4B8" />
<rect x="40" y="56" width="1" height="8" fill="#272790" />
<rect x="48" y="56" width="3" height="8" fill="#272790" />
<rect x="35" y="59" width="1" height="5" fill="#272790" />
<rect x="36" y="59" width="3" height="1" fill="#4FA4B8" />
<rect x="39" y="59" width="1" height="5" fill="#272790" />
<rect x="36" y="60" width="3" height="4" fill="#272790" />
</svg>